<svg width="298" height="48" viewBox="0 0 298 48" fill="none" xmlns="http://www.w3.org/2000/svg">
<path d="M63.2535 36.704V9.992H73.9815C80.7135 9.992 83.5935 12.512 83.9175 16.328C84.2415 18.56 83.0535 21.332 80.7855 22.304C83.5575 23.564 84.9255 26.732 84.6015 29.792C84.1335 34.22 81.1455 36.704 75.3135 36.704H63.2535ZM69.5175 15.644V20.036H75.1335C76.7175 19.928 77.6535 19.136 77.6535 17.804C77.6535 16.508 76.6815 15.644 74.9175 15.644H69.5175ZM69.5175 25.472V31.052H75.0615C77.5815 31.088 78.3015 29.828 78.3015 28.244C78.3015 26.768 77.3655 25.472 74.7735 25.472H69.5175ZM87.4761 36.704V9.992H98.2041C104.936 9.992 107.816 12.512 108.14 16.328C108.464 18.56 107.276 21.332 105.008 22.304C107.78 23.564 109.148 26.732 108.824 29.792C108.356 34.22 105.368 36.704 99.5361 36.704H87.4761ZM93.7401 15.644V20.036H99.3561C100.94 19.928 101.876 19.136 101.876 17.804C101.876 16.508 100.904 15.644 99.1401 15.644H93.7401ZM93.7401 25.472V31.052H99.2841C101.804 31.088 102.524 29.828 102.524 28.244C102.524 26.768 101.588 25.472 98.9961 25.472H93.7401ZM119.439 16.904H122.463V15.716C122.463 11.216 124.299 9.2 127.791 9.2H131.571V14.744H130.311C128.943 14.744 128.691 15.14 128.691 16.364V16.904H131.751V22.52H128.691V36.704H122.463V22.52H119.439V16.904ZM147.529 36.704V34.976C146.341 36.2 144.469 36.956 142.381 36.956C137.125 36.956 132.877 33.716 133.057 26.696C133.273 19.604 137.737 16.292 142.633 16.508C144.721 16.616 146.449 17.552 147.529 18.704V16.904H153.757V36.704H147.529ZM143.137 31.448C145.261 31.448 146.881 30.44 147.313 28.244C147.349 28.1 147.385 27.416 147.385 27.272C147.385 23.888 145.585 22.016 143.281 22.016C141.337 21.908 139.285 23.456 139.285 26.696C139.285 29.828 140.941 31.448 143.137 31.448ZM156.69 36.704V16.904H162.99V18.056C163.89 17.3 165.69 16.58 167.418 16.436H167.994C172.818 16.436 175.05 19.676 175.086 24.608V36.704H168.786V27.308C168.786 23.168 167.778 22.448 166.014 22.52C164.646 22.592 164.034 22.952 162.99 23.744V36.704H156.69ZM177.455 26.732C177.455 20.108 181.739 16.184 188.471 16.184C191.675 16.184 194.483 17.372 196.787 20.144L193.079 24.392C191.423 22.592 190.271 21.944 188.363 21.944C186.023 21.98 183.683 23.888 183.683 26.732C183.683 29.648 185.951 31.556 188.435 31.556C190.487 31.556 191.819 30.62 193.223 29.108L196.895 33.32C194.735 36.128 191.711 37.316 188.471 37.316C181.883 37.352 177.455 33.752 177.455 26.732ZM199.265 36.704V9.992H205.565V17.84C206.465 17.084 208.229 16.508 209.957 16.364H210.425C215.249 16.364 217.805 19.856 217.805 24.608V36.704H211.505V26.948C211.505 23.24 210.389 22.268 208.553 22.448C207.329 22.556 206.357 23.024 205.565 23.852V36.704H199.265ZM234.752 36.704V34.976C233.564 36.2 231.692 36.956 229.604 36.956C224.348 36.956 220.1 33.716 220.28 26.696C220.496 19.604 224.96 16.292 229.856 16.508C231.944 16.616 233.672 17.552 234.752 18.704V16.904H240.98V36.704H234.752ZM230.36 31.448C232.484 31.448 234.104 30.44 234.536 28.244C234.572 28.1 234.608 27.416 234.608 27.272C234.608 23.888 232.808 22.016 230.504 22.016C228.56 21.908 226.508 23.456 226.508 26.696C226.508 29.828 228.164 31.448 230.36 31.448ZM243.913 36.704V16.904H250.213V18.056C251.113 17.3 252.913 16.58 254.641 16.436H255.217C260.041 16.436 262.273 19.676 262.309 24.608V36.704H256.009V27.308C256.009 23.168 255.001 22.448 253.237 22.52C251.869 22.592 251.257 22.952 250.213 23.744V36.704H243.913ZM273.606 28.388C273.606 29.9 273.786 30.62 274.578 30.908C275.118 31.088 275.586 31.052 276.738 30.656L277.782 36.164C275.91 37.028 272.886 37.352 270.762 36.524C268.278 35.516 267.378 33.32 267.378 29.54V22.52H264.138V16.904H267.378V9.992H273.606V16.904H277.638V22.52H273.606V28.388ZM291.44 37.028C289.532 37.568 287.192 37.496 284.492 37.064C282.62 36.704 280.496 35.768 278.624 34.472L281.144 29.576C283.484 30.8 285.68 31.7 287.768 31.988C289.1 32.276 289.388 30.656 288.2 30.152C286.652 29.396 284.6 29 282.116 27.488C279.74 26.048 278.552 23.096 279.776 20.216C280.676 17.84 282.872 16.292 286.868 16.148C290.072 16.04 292.808 16.976 295.508 19.064L292.268 23.564C290.288 22.34 288.74 21.836 287.228 21.728C286.4 21.62 285.932 23.024 286.796 23.492C288.272 24.32 290.396 24.752 292.412 25.832C295.076 27.2 296.336 29.324 295.94 32.096C295.616 34.796 293.924 36.308 291.44 37.028Z" fill="#F8F8F8"/>
<path fill-rule="evenodd" clip-rule="evenodd" d="M33.5715 5.4981C29.9535 -1.8327 19.5 -1.8327 15.8821 5.4981C14.4454 8.40916 11.6682 10.4269 8.45568 10.8937C0.36567 12.0692 -2.86463 22.0111 2.98935 27.7173C5.31398 29.9833 6.37475 33.248 5.82598 36.4476C4.44404 44.5049 12.9011 50.6493 20.137 46.8451C23.0104 45.3345 26.4431 45.3345 29.3165 46.8451C36.5524 50.6493 45.0095 44.5049 43.6275 36.4476C43.0788 33.248 44.1395 29.9833 46.4642 27.7173C52.3182 22.0111 49.0879 12.0692 40.9978 10.8937C37.7853 10.4269 35.0082 8.40916 33.5715 5.4981ZM39.993 25.4306C39.993 33.804 33.205 40.592 24.8316 40.592C16.4581 40.592 9.67014 33.804 9.67014 25.4306C9.67014 17.0572 16.4581 10.2692 24.8316 10.2692C33.205 10.2692 39.993 17.0572 39.993 25.4306ZM18.9691 32.5528V18.1531H24.7523C28.3814 18.1531 29.9339 19.5116 30.1085 21.5687C30.2832 22.7719 29.6428 24.2662 28.4202 24.7902C29.9145 25.4694 30.6519 27.1772 30.4773 28.8268C30.225 31.2138 28.6142 32.5528 25.4704 32.5528H18.9691ZM22.3459 21.2V23.5676H25.3733C26.2272 23.5094 26.7318 23.0824 26.7318 22.3644C26.7318 21.6657 26.2078 21.2 25.2569 21.2H22.3459ZM22.3459 26.498V29.506H25.3345C26.693 29.5254 27.0811 28.8462 27.0811 27.9923C27.0811 27.1966 26.5765 26.498 25.1793 26.498H22.3459Z" fill="#F8F8F8"/>
</svg>
